<mxfile host="app.diagrams.net" modified="2022-01-16T03:58:21.482Z" agent="5.0 (Macintosh; Intel Mac OS X 10_15_7) AppleWebKit/537.36 (KHTML, like Gecko) Chrome/97.0.4692.71 Safari/537.36" etag="h5qW2DU6TeO5HCbxaa_Y" version="16.2.7" type="github">
  <diagram name="Page-1" id="74e2e168-ea6b-b213-b513-2b3c1d86103e">
    <mxGraphModel dx="1426" dy="826" grid="1" gridSize="10" guides="1" tooltips="1" connect="1" arrows="1" fold="1" page="1" pageScale="1" pageWidth="1100" pageHeight="850" background="none" math="0" shadow="0">
      <root>
        <mxCell id="0" />
        <mxCell id="1" parent="0" />
        <mxCell id="PeNrBL01U2X6VDr4iYvF-6" value="Command 20" style="rounded=1;whiteSpace=wrap;html=1;shadow=0;labelBackgroundColor=none;strokeWidth=1;fontFamily=Verdana;fontSize=8;align=center;" vertex="1" parent="1">
          <mxGeometry x="220" y="100" width="100" height="60" as="geometry" />
        </mxCell>
        <mxCell id="77e6c97f196da883-11" value="PlayerName ( max 16 bytes )" style="rounded=1;whiteSpace=wrap;html=1;shadow=0;labelBackgroundColor=none;strokeWidth=1;fontFamily=Verdana;fontSize=8;align=center;" parent="1" vertex="1">
          <mxGeometry x="410" y="98.75" width="180" height="62.5" as="geometry" />
        </mxCell>
        <mxCell id="PeNrBL01U2X6VDr4iYvF-5" style="edgeStyle=orthogonalEdgeStyle;rounded=0;orthogonalLoop=1;jettySize=auto;html=1;" edge="1" parent="1" source="77e6c97f196da883-11" target="PeNrBL01U2X6VDr4iYvF-4">
          <mxGeometry relative="1" as="geometry" />
        </mxCell>
        <mxCell id="PeNrBL01U2X6VDr4iYvF-8" style="edgeStyle=orthogonalEdgeStyle;rounded=0;orthogonalLoop=1;jettySize=auto;html=1;" edge="1" parent="1" source="PeNrBL01U2X6VDr4iYvF-4" target="PeNrBL01U2X6VDr4iYvF-7">
          <mxGeometry relative="1" as="geometry" />
        </mxCell>
        <mxCell id="PeNrBL01U2X6VDr4iYvF-9" value="True" style="edgeLabel;html=1;align=center;verticalAlign=middle;resizable=0;points=[];" vertex="1" connectable="0" parent="PeNrBL01U2X6VDr4iYvF-8">
          <mxGeometry x="-0.1566" y="-1" relative="1" as="geometry">
            <mxPoint as="offset" />
          </mxGeometry>
        </mxCell>
        <mxCell id="PeNrBL01U2X6VDr4iYvF-37" style="edgeStyle=orthogonalEdgeStyle;rounded=0;orthogonalLoop=1;jettySize=auto;html=1;" edge="1" parent="1" source="PeNrBL01U2X6VDr4iYvF-4" target="PeNrBL01U2X6VDr4iYvF-35">
          <mxGeometry relative="1" as="geometry" />
        </mxCell>
        <mxCell id="PeNrBL01U2X6VDr4iYvF-38" value="False" style="edgeLabel;html=1;align=center;verticalAlign=middle;resizable=0;points=[];" vertex="1" connectable="0" parent="PeNrBL01U2X6VDr4iYvF-37">
          <mxGeometry x="-0.1091" y="3" relative="1" as="geometry">
            <mxPoint as="offset" />
          </mxGeometry>
        </mxCell>
        <mxCell id="PeNrBL01U2X6VDr4iYvF-4" value="PlayerUUID&lt;br&gt;(1 byte)" style="rhombus;whiteSpace=wrap;html=1;" vertex="1" parent="1">
          <mxGeometry x="450" y="210" width="100" height="90" as="geometry" />
        </mxCell>
        <mxCell id="PeNrBL01U2X6VDr4iYvF-1" style="edgeStyle=orthogonalEdgeStyle;rounded=0;orthogonalLoop=1;jettySize=auto;html=1;entryX=0;entryY=0.5;entryDx=0;entryDy=0;" edge="1" parent="1" source="PeNrBL01U2X6VDr4iYvF-6" target="77e6c97f196da883-11">
          <mxGeometry relative="1" as="geometry">
            <mxPoint x="-160" y="185" as="sourcePoint" />
          </mxGeometry>
        </mxCell>
        <mxCell id="PeNrBL01U2X6VDr4iYvF-36" style="edgeStyle=orthogonalEdgeStyle;rounded=0;orthogonalLoop=1;jettySize=auto;html=1;entryX=0.5;entryY=1;entryDx=0;entryDy=0;" edge="1" parent="1" source="PeNrBL01U2X6VDr4iYvF-7" target="PeNrBL01U2X6VDr4iYvF-35">
          <mxGeometry relative="1" as="geometry" />
        </mxCell>
        <mxCell id="PeNrBL01U2X6VDr4iYvF-7" value="PlayerUUID ( exactly 32 bytes )&lt;br&gt;[remove &#39;-&#39; characters]" style="rounded=1;whiteSpace=wrap;html=1;shadow=0;labelBackgroundColor=none;strokeWidth=1;fontFamily=Verdana;fontSize=8;align=center;" vertex="1" parent="1">
          <mxGeometry x="410" y="340" width="180" height="62.5" as="geometry" />
        </mxCell>
        <mxCell id="PeNrBL01U2X6VDr4iYvF-34" style="edgeStyle=none;rounded=0;orthogonalLoop=1;jettySize=auto;html=1;" edge="1" parent="1" source="PeNrBL01U2X6VDr4iYvF-10" target="PeNrBL01U2X6VDr4iYvF-14">
          <mxGeometry relative="1" as="geometry" />
        </mxCell>
        <mxCell id="PeNrBL01U2X6VDr4iYvF-10" value="Ban Reason&lt;br&gt;(max 50 bytes)" style="rounded=1;whiteSpace=wrap;html=1;shadow=0;labelBackgroundColor=none;strokeWidth=1;fontFamily=Verdana;fontSize=8;align=center;" vertex="1" parent="1">
          <mxGeometry x="830" y="300" width="180" height="62.5" as="geometry" />
        </mxCell>
        <mxCell id="PeNrBL01U2X6VDr4iYvF-45" style="edgeStyle=orthogonalEdgeStyle;rounded=0;orthogonalLoop=1;jettySize=auto;html=1;" edge="1" parent="1" source="PeNrBL01U2X6VDr4iYvF-14" target="PeNrBL01U2X6VDr4iYvF-44">
          <mxGeometry relative="1" as="geometry" />
        </mxCell>
        <mxCell id="PeNrBL01U2X6VDr4iYvF-14" value="AdminUUID ( exactly 32 bytes )&lt;br&gt;[remove &#39;-&#39; characters]" style="rounded=1;whiteSpace=wrap;html=1;shadow=0;labelBackgroundColor=none;strokeWidth=1;fontFamily=Verdana;fontSize=8;align=center;" vertex="1" parent="1">
          <mxGeometry x="830" y="392.5" width="180" height="62.5" as="geometry" />
        </mxCell>
        <mxCell id="PeNrBL01U2X6VDr4iYvF-20" style="edgeStyle=orthogonalEdgeStyle;rounded=0;orthogonalLoop=1;jettySize=auto;html=1;" edge="1" parent="1" source="PeNrBL01U2X6VDr4iYvF-16" target="PeNrBL01U2X6VDr4iYvF-18">
          <mxGeometry relative="1" as="geometry" />
        </mxCell>
        <mxCell id="PeNrBL01U2X6VDr4iYvF-16" value="Type ( 1 byte ) &lt;br&gt;[1=global,2=local,3=temp]" style="rounded=1;whiteSpace=wrap;html=1;shadow=0;labelBackgroundColor=none;strokeWidth=1;fontFamily=Verdana;fontSize=8;align=center;" vertex="1" parent="1">
          <mxGeometry x="580" y="488.75" width="180" height="62.5" as="geometry" />
        </mxCell>
        <mxCell id="PeNrBL01U2X6VDr4iYvF-22" style="edgeStyle=orthogonalEdgeStyle;rounded=0;orthogonalLoop=1;jettySize=auto;html=1;" edge="1" parent="1" source="PeNrBL01U2X6VDr4iYvF-18" target="PeNrBL01U2X6VDr4iYvF-21">
          <mxGeometry relative="1" as="geometry" />
        </mxCell>
        <mxCell id="PeNrBL01U2X6VDr4iYvF-23" value="TempBan" style="edgeLabel;html=1;align=center;verticalAlign=middle;resizable=0;points=[];" vertex="1" connectable="0" parent="PeNrBL01U2X6VDr4iYvF-22">
          <mxGeometry x="-0.1135" y="-2" relative="1" as="geometry">
            <mxPoint as="offset" />
          </mxGeometry>
        </mxCell>
        <mxCell id="PeNrBL01U2X6VDr4iYvF-25" style="edgeStyle=orthogonalEdgeStyle;rounded=0;orthogonalLoop=1;jettySize=auto;html=1;" edge="1" parent="1" source="PeNrBL01U2X6VDr4iYvF-18" target="PeNrBL01U2X6VDr4iYvF-24">
          <mxGeometry relative="1" as="geometry" />
        </mxCell>
        <mxCell id="PeNrBL01U2X6VDr4iYvF-26" value="Global/Local" style="edgeLabel;html=1;align=center;verticalAlign=middle;resizable=0;points=[];" vertex="1" connectable="0" parent="PeNrBL01U2X6VDr4iYvF-25">
          <mxGeometry x="-0.1915" y="-3" relative="1" as="geometry">
            <mxPoint as="offset" />
          </mxGeometry>
        </mxCell>
        <mxCell id="PeNrBL01U2X6VDr4iYvF-32" style="rounded=0;orthogonalLoop=1;jettySize=auto;html=1;exitX=1;exitY=1;exitDx=0;exitDy=0;entryX=0;entryY=0.25;entryDx=0;entryDy=0;" edge="1" parent="1" source="PeNrBL01U2X6VDr4iYvF-18" target="PeNrBL01U2X6VDr4iYvF-31">
          <mxGeometry relative="1" as="geometry" />
        </mxCell>
        <mxCell id="PeNrBL01U2X6VDr4iYvF-33" value="Others" style="edgeLabel;html=1;align=center;verticalAlign=middle;resizable=0;points=[];" vertex="1" connectable="0" parent="PeNrBL01U2X6VDr4iYvF-32">
          <mxGeometry x="-0.0043" y="1" relative="1" as="geometry">
            <mxPoint x="-1" as="offset" />
          </mxGeometry>
        </mxCell>
        <mxCell id="PeNrBL01U2X6VDr4iYvF-18" value="Type" style="rhombus;whiteSpace=wrap;html=1;" vertex="1" parent="1">
          <mxGeometry x="420" y="480" width="80" height="80" as="geometry" />
        </mxCell>
        <mxCell id="PeNrBL01U2X6VDr4iYvF-27" style="edgeStyle=orthogonalEdgeStyle;rounded=0;orthogonalLoop=1;jettySize=auto;html=1;" edge="1" parent="1" source="PeNrBL01U2X6VDr4iYvF-21" target="PeNrBL01U2X6VDr4iYvF-24">
          <mxGeometry relative="1" as="geometry">
            <Array as="points">
              <mxPoint x="220" y="671" />
            </Array>
          </mxGeometry>
        </mxCell>
        <mxCell id="PeNrBL01U2X6VDr4iYvF-21" value="end Time ( max 40 bytes )&amp;nbsp;&lt;br&gt;[1 m, 1 minute, 5 days]" style="rounded=1;whiteSpace=wrap;html=1;shadow=0;labelBackgroundColor=none;strokeWidth=1;fontFamily=Verdana;fontSize=8;align=center;" vertex="1" parent="1">
          <mxGeometry x="170" y="488.75" width="180" height="62.5" as="geometry" />
        </mxCell>
        <mxCell id="PeNrBL01U2X6VDr4iYvF-24" value="Acknowledge" style="rounded=1;whiteSpace=wrap;html=1;shadow=0;labelBackgroundColor=none;strokeWidth=1;fontFamily=Verdana;fontSize=8;align=center;" vertex="1" parent="1">
          <mxGeometry x="370" y="678.75" width="180" height="62.5" as="geometry" />
        </mxCell>
        <mxCell id="PeNrBL01U2X6VDr4iYvF-31" value="Rejected" style="triangle;whiteSpace=wrap;html=1;" vertex="1" parent="1">
          <mxGeometry x="610" y="598.75" width="70" height="80" as="geometry" />
        </mxCell>
        <mxCell id="PeNrBL01U2X6VDr4iYvF-39" style="edgeStyle=orthogonalEdgeStyle;rounded=0;orthogonalLoop=1;jettySize=auto;html=1;" edge="1" parent="1" source="PeNrBL01U2X6VDr4iYvF-35" target="PeNrBL01U2X6VDr4iYvF-10">
          <mxGeometry relative="1" as="geometry" />
        </mxCell>
        <mxCell id="PeNrBL01U2X6VDr4iYvF-40" value="Player Exists" style="edgeLabel;html=1;align=center;verticalAlign=middle;resizable=0;points=[];" vertex="1" connectable="0" parent="PeNrBL01U2X6VDr4iYvF-39">
          <mxGeometry x="-0.44" y="1" relative="1" as="geometry">
            <mxPoint as="offset" />
          </mxGeometry>
        </mxCell>
        <mxCell id="PeNrBL01U2X6VDr4iYvF-42" style="edgeStyle=orthogonalEdgeStyle;rounded=0;orthogonalLoop=1;jettySize=auto;html=1;" edge="1" parent="1" source="PeNrBL01U2X6VDr4iYvF-35" target="PeNrBL01U2X6VDr4iYvF-41">
          <mxGeometry relative="1" as="geometry">
            <Array as="points">
              <mxPoint x="700" y="130" />
            </Array>
          </mxGeometry>
        </mxCell>
        <mxCell id="PeNrBL01U2X6VDr4iYvF-43" value="No Player" style="edgeLabel;html=1;align=center;verticalAlign=middle;resizable=0;points=[];" vertex="1" connectable="0" parent="PeNrBL01U2X6VDr4iYvF-42">
          <mxGeometry x="-0.0957" y="3" relative="1" as="geometry">
            <mxPoint as="offset" />
          </mxGeometry>
        </mxCell>
        <mxCell id="PeNrBL01U2X6VDr4iYvF-35" value="Get&lt;br&gt;Player" style="rhombus;whiteSpace=wrap;html=1;" vertex="1" parent="1">
          <mxGeometry x="660" y="215" width="80" height="80" as="geometry" />
        </mxCell>
        <mxCell id="PeNrBL01U2X6VDr4iYvF-41" value="Rejected" style="triangle;whiteSpace=wrap;html=1;" vertex="1" parent="1">
          <mxGeometry x="730" y="90" width="70" height="80" as="geometry" />
        </mxCell>
        <mxCell id="PeNrBL01U2X6VDr4iYvF-53" style="edgeStyle=orthogonalEdgeStyle;rounded=0;orthogonalLoop=1;jettySize=auto;html=1;" edge="1" parent="1" source="PeNrBL01U2X6VDr4iYvF-44" target="PeNrBL01U2X6VDr4iYvF-16">
          <mxGeometry relative="1" as="geometry">
            <Array as="points">
              <mxPoint x="810" y="520" />
              <mxPoint x="810" y="520" />
            </Array>
          </mxGeometry>
        </mxCell>
        <mxCell id="PeNrBL01U2X6VDr4iYvF-44" value="Player IP&lt;br&gt;( max 15 bytes )" style="rounded=1;whiteSpace=wrap;html=1;shadow=0;labelBackgroundColor=none;strokeWidth=1;fontFamily=Verdana;fontSize=8;align=center;" vertex="1" parent="1">
          <mxGeometry x="830" y="490" width="180" height="62.5" as="geometry" />
        </mxCell>
      </root>
    </mxGraphModel>
  </diagram>
</mxfile>
